# xmcd
#
# Track frame offsets: 
#        150
#        11445
#        22970
#        34087
#        43322
#        56072
#        65752
#        74097
#        84675
#        96965
#        106982
#        117425
#        127642
#        138760
#        147627
#        160267
#        172317
#        188630
#        197395
#        205320
#        217120
#        226605
#        236532
#        250607
#        259310
#        267035
#        279215
#
# Disc length: 3868 seconds
#
# Revision: 0
# Processed by: cddbd v1.5.2PL0 Copyright (c) Steve Scherf et al.
# Submitted via: ExactAudioCopy v0.95b1
#
DISCID=8a0f1a1b
DTITLE=Leroy Pullins - I'm A Nut
DYEAR=1900
DGENRE=Country
TTITLE0=Im A Nut
TTITLE1=I Love You Drops
TTITLE2=The Taterville Women's Auxiliary Sewing Circle
TTITLE3=I've Got A Sore In My Heart
TTITLE4=Billy Roy And Jackson Sam
TTITLE5=I've Been Everywhere
TTITLE6=Knee Deep
TTITLE7=I'm Killing Myself
TTITLE8=Okeefenokee
TTITLE9=What's His Name
TTITLE10=S-Tree Towers
TTITLE11=Out In The Smokehouse Takin' A Bath
TTITLE12=The Interstate Is Coming Through My Outhouse
TTITLE13=Tears, Tears, Tears
TTITLE14=Gipsy Rose And I Don't Give A Curse
TTITLE15=The Wall Around Your Heart
TTITLE16=Testing 1, 2, 3
TTITLE17=I-Done-You Wrong
TTITLE18=Swimming At The Bottom Of The Pool
TTITLE19=Blinded By Love
TTITLE20=Yellow
TTITLE21=The Worst Was Wonderful
TTITLE22=Oriental Girl
TTITLE23=Meter Maid
TTITLE24=Tickled Pink
TTITLE25=I Ain't The Worryin' Kind
TTITLE26=World (What Have I Done)
EXTD=
EXTT0=
EXTT1=
EXTT2=
EXTT3=
EXTT4=
EXTT5=
EXTT6=
EXTT7=
EXTT8=
EXTT9=
EXTT10=
EXTT11=
EXTT12=
EXTT13=
EXTT14=
EXTT15=
EXTT16=
EXTT17=
EXTT18=
EXTT19=
EXTT20=
EXTT21=
EXTT22=
EXTT23=
EXTT24=
EXTT25=
EXTT26=
PLAYORDER=
